<svg width="24" height="14" viewBox="0 0 24 14" fill="none" xmlns="http://www.w3.org/2000/svg">
<path d="M20.5565 5.6363L20.3865 5.5215L20.3828 5.3872L20.1448 5.2845L19.9262 5.2835L19.9848 4.3833L19.8016 4.2331L19.5809 4.2983L19.364 4.4373L19.2401 4.7491L18.7372 4.943L18.341 4.9243L17.6606 4.5591L18.559 4.3999L18.759 4.2903V4.0265L18.526 3.719L18.1674 3.6989L18.254 3.4763L18.9438 3.6409L19.2046 3.722L19.3036 3.5456L19.252 3.1961L18.9225 3.0016L18.716 2.8789L18.8599 2.5835L19.1217 2.5475L19.1205 2.2705L18.9178 2.0437L19.0861 1.851L19.2389 1.7793L19.6671 2.1195L19.8035 1.9359L19.8788 1.6479L19.6754 1.3758L19.3943 1.2471L19.1468 1.0101L19.6779 1.0818L19.8836 1.2898L20.1352 1.3345H20.3584L20.0002 0.859798L19.7547 0.678699L19.8546 0.607098L20.3373 0.7444L20.3875 0.758598L20.6426 0.934601L20.5736 0.373699L20.5598 0.158199L20.7249 0.394798L21.0089 1.0394V1.2136L21.1582 1.5015L21.1545 1.9361L20.9297 2.2266L20.641 2.5214L20.6498 2.7886L20.694 3.1549L21.0231 3.1715L21.4661 3.2954L21.6648 3.0939L21.8005 2.779L22.0064 2.4133L22.114 2.1324L22.2272 1.6716L22.2022 1.1279L22.1268 0.7999L22.0304 0.6422L22.046 0.310799L22.1415 0.111599L22.3249 0.0207996L22.3713 0.956898L22.4117 1.0256L22.5786 1.1164V1.4166L22.7254 1.4274L22.8672 1.2866V0.887398L22.995 0.526001L23.148 0.244999L23.3919 0L23.3592 0.124798L23.4117 0.478298L23.2157 0.8778L23.187 1.4803L23.1803 1.5877L22.8656 1.9219L22.6657 2.0469L22.3214 2.6541L22.1958 3.0678L22.1823 3.4442L21.4886 3.6744L21.2321 3.7052L20.8458 3.8053L20.7076 4.2092L20.7248 4.6014L20.7786 5.1724L20.836 5.3013L20.7303 5.5473L20.6442 5.6792L20.5565 5.6363Z" fill="white"/>
<path d="M18.4448 8.92979C18.4448 7.76279 19.3909 6.8167 20.5579 6.8167C21.725 6.8167 22.6711 7.76279 22.6711 8.92979C22.6711 10.0969 21.6145 11.043 20.5579 11.043C19.5014 11.043 18.4448 10.0969 18.4448 8.92979Z" stroke="white" stroke-width="1.01" stroke-miterlimit="10" stroke-linejoin="round"/>
<path d="M19.9553 6.8167L20.1749 5.34L20.8704 5.3455L21.1606 6.8167H19.9553Z" stroke="white" stroke-width="1.01" stroke-miterlimit="10" stroke-linejoin="round"/>
<path d="M3.32 11.08C1.616 11.08 0.392 9.704 0.392 8C0.392 6.296 1.616 4.92 3.32 4.92C3.888 4.92 4.424 5.104 4.856 5.416V6.512C4.432 6.032 3.904 5.792 3.32 5.792C2.08 5.792 1.256 6.76 1.256 8C1.256 9.24 2.08 10.208 3.32 10.208C3.904 10.208 4.44 9.968 4.856 9.488V10.584C4.424 10.896 3.888 11.08 3.32 11.08ZM8.44481 5H9.30881V11H8.52481L8.47681 10.552C8.18081 10.88 7.76481 11.08 7.26881 11.08C6.13281 11.08 5.43681 10.168 5.43681 9C5.43681 7.832 6.13281 6.92 7.26881 6.92C7.74081 6.92 8.14881 7.104 8.44481 7.416V5ZM7.41281 10.296C7.88481 10.296 8.28481 9.952 8.44481 9.464V8.536C8.28481 8.048 7.88481 7.704 7.41281 7.704C6.71681 7.704 6.30881 8.28 6.30881 9C6.30881 9.72 6.71681 10.296 7.41281 10.296ZM13.3632 4.992L12.4592 6.272H11.7632L12.4592 4.992H13.3632ZM13.8912 9.032C13.8912 9.112 13.8912 9.2 13.8752 9.28H11.0432C11.1152 9.92 11.4672 10.312 12.1232 10.312C12.5632 10.312 12.8192 10.176 13.1472 9.664L13.7632 10.096C13.4352 10.712 12.8752 11.08 12.0912 11.08C10.8832 11.08 10.1712 10.216 10.1712 9.008C10.1712 7.808 10.8912 6.92 12.0912 6.92C13.2512 6.92 13.8912 7.792 13.8912 9.032ZM12.1072 7.68C11.5152 7.68 11.1712 8.032 11.0672 8.6H13.0912C13.0112 8.024 12.6832 7.68 12.1072 7.68ZM16.3953 11.08C15.1953 11.08 14.4993 10.208 14.4993 9C14.4993 7.792 15.1953 6.92 16.3953 6.92C16.6833 6.92 17.0753 6.976 17.3873 7.2V8.08C17.1793 7.84 16.8433 7.672 16.4913 7.672C15.7793 7.672 15.3713 8.232 15.3713 9C15.3713 9.768 15.7793 10.336 16.4913 10.336C16.8513 10.336 17.1873 10.16 17.3873 9.928V10.8C17.0833 11.024 16.6833 11.08 16.3953 11.08Z" fill="white"/>
</svg>
